<svg width="1095" height="1095" viewBox="0 0 1095 1095" fill="none" xmlns="http://www.w3.org/2000/svg">
<path d="M746.5 699H660.5V568.5H746.5V699Z" fill="#D5F74E"/>
<path d="M746.5 699H660.5V568.5H746.5V699Z" fill="#D5F74E"/>
<path d="M877.5 699H836.5V569H877.5V699Z" fill="#D5F74E"/>
<path d="M877.5 699H836.5V569H877.5V699Z" fill="#D5F74E"/>
<path d="M967 438V872.5H1011V918H1058V963.5H1094.5V1095H834V963.5H793.5V872.5H834V827H879.5V741H923V480H879.5V438H834V392.5H742.5V438H702.5V480H615V520H569V788.5H660.5V827H742.5V963.5H702.5V1095H262.5V1005.5H306.5V963.5H350V918H397.5V872.5H435V837.048L397.5 827V608H350V564H306.5V520H262.5V564H171.5V608H85.5V564H131V520H85.5V480H0V438H131V480H171.5V520H220.5V438H262.5V392.5H220.5V348.5H131V305H85.5V255.5H42V213.5H131V255.5H171.5V305H262.5V348.5H306.5V392.5H350V348.5H397.5V305H702.5V213.5H660.5V166H615V213.5H569V255.5H481.5V213.5H525.5V166H569V124H525.5V84H615V124H702.5V166H742.5V213.5H834V255.5H879.5V305H923V438H967Z" fill="#D4F74F"/>
</svg>
